# xmcd
#
# Track frame offsets: 
#        182
#        4277
#        20080
#        35585
#        55020
#        70460
#        84192
#        109120
#        114700
#        124482
#        145437
#        158060
#        172540
#
# Disc length: 2502 seconds
#
# Revision: 1
# Processed by: cddbd v1.5.1PL0 Copyright (c) Steve Scherf et al.
# Submitted via: ExactAudioCopy v0.95a5
#
DISCID=ad09c40d
DTITLE=Cowboy Nation - Cowboy Nation
DYEAR=1997
DGENRE=Country
TTITLE0=RPM
TTITLE1=Remember the Alamo
TTITLE2=Cowboy Way
TTITLE3=Old Paint
TTITLE4=Cowboy Nation
TTITLE5=Way Out West
TTITLE6=The Blizzard
TTITLE7=Tender Foot
TTITLE8=Revolution
TTITLE9=Cowboy's Lament
TTITLE10=Big Train
TTITLE11=Rifle, Pony and Me
TTITLE12=The Clock
EXTD=1998 Coconut Grove Records\nYEAR: 2001  ID3G:   2
EXTT0=
EXTT1=
EXTT2=
EXTT3=
EXTT4=
EXTT5=
EXTT6=
EXTT7=
EXTT8=
EXTT9=
EXTT10=
EXTT11=
EXTT12=
PLAYORDER=
